<?xml version="1.0" encoding="utf-8"?>
<!-- Generator: Adobe Illustrator 21.1.0, SVG Export Plug-In . SVG Version: 6.00 Build 0)  -->
<svg version="1.1" id="Layer_1" xmlns="http://www.w3.org/2000/svg" xmlns:xlink="http://www.w3.org/1999/xlink" x="0px" y="0px"
	 viewBox="0 0 200 200" style="enable-background:new 0 0 200 200;" xml:space="preserve">
<style type="text/css">
	.st0{fill:#FFFFFF;}
	.st1{fill:url(#SVGID_1_);}
	.st2{fill:url(#SVGID_2_);}
	.st3{fill:url(#SVGID_3_);}
	.st4{fill:none;}
	.st5{fill:url(#SVGID_4_);}
	.st6{fill:url(#SVGID_5_);}
	.st7{fill:url(#SVGID_6_);}
	.st8{fill:url(#SVGID_7_);}
</style>
<title>ACCBadge_Artboard 6</title>
<g>
	<g id="Layer_1_1_">
		
			<image style="overflow:visible;opacity:0.25;enable-background:new    ;" width="131" height="202" xlink:href="C2CA0067CD0E3DBF.png"  transform="matrix(0.9924 0 0 0.994 38.12 -1.83)">
		</image>
		<path class="st0" d="M99.8,188.1c-0.5,0-0.9-0.1-1.4-0.2l-54.6-24.7c-0.7-0.4-1.2-1.2-1.3-2V1.1C42.5,0.5,43,0,43.6,0l0,0h112
			c0.6,0,1.1,0.5,1.1,1.1l0,0v159c-0.1,0.8-0.5,1.6-1.3,2L101,187.8C100.8,188,100.3,188.1,99.8,188.1z"/>
		<path class="st0" d="M155.7,0.8c0.2,0,0.4,0.2,0.4,0.3v159c-0.1,0.5-0.4,1-0.8,1.3l-54.4,25.7c-0.3,0.1-0.7,0.2-1.1,0.2
			c-0.3,0-0.7-0.1-1-0.2l-54.6-24.7c-0.5-0.3-0.8-0.7-0.8-1.3V1.1c0-0.2,0.2-0.3,0.4-0.3H155.7 M155.7-0.7h-112
			c-1,0-1.9,0.8-1.9,1.9v160c0.1,1.1,0.7,2.1,1.7,2.6l54.6,24.8c0.5,0.2,1.1,0.3,1.7,0.3s1.2-0.1,1.8-0.3l54.4-25.7
			c1-0.5,1.6-1.5,1.7-2.7V1.1C157.6,0.1,156.8-0.7,155.7-0.7L155.7-0.7z"/>
		<linearGradient id="SVGID_1_" gradientUnits="userSpaceOnUse" x1="56.8473" y1="-8.8872" x2="142.4025" y2="139.3045">
			<stop  offset="1.000000e-02" style="stop-color:#DEE2E5;stop-opacity:0.4"/>
			<stop  offset="0.13" style="stop-color:#D5CCC0;stop-opacity:0.3"/>
			<stop  offset="0.39" style="stop-color:#FFFBE6;stop-opacity:0.2"/>
			<stop  offset="0.43" style="stop-color:#FDF9E7;stop-opacity:0.27"/>
			<stop  offset="0.52" style="stop-color:#F7F4E9;stop-opacity:0.46"/>
			<stop  offset="0.63" style="stop-color:#EEEDEC;stop-opacity:0.76"/>
			<stop  offset="0.64" style="stop-color:#EDECEC;stop-opacity:0.8"/>
			<stop  offset="0.85" style="stop-color:#D7D4BA;stop-opacity:0.4"/>
			<stop  offset="1" style="stop-color:#DCD3C5;stop-opacity:0.4"/>
		</linearGradient>
		<path class="st1" d="M126.1-1H43.7c-1,0-1.9,0.8-1.9,1.8v128.9c0.1,1.1,0.7,2.1,1.7,2.6l54.6,25.3c1.1,0.4,2.3,0.4,3.4,0
			l54.4-26.3c1-0.5,1.6-1.6,1.7-2.7V0.8c0-1-0.9-1.9-1.9-1.8C155.7-1,126.1-1,126.1-1z"/>
		<linearGradient id="SVGID_2_" gradientUnits="userSpaceOnUse" x1="41.8" y1="156.7688" x2="157.725" y2="156.7688">
			<stop  offset="0" style="stop-color:#26CAD3"/>
			<stop  offset="0.34" style="stop-color:#1DC4CE"/>
			<stop  offset="0.9" style="stop-color:#05B4C1"/>
			<stop  offset="1" style="stop-color:#00B1BE"/>
		</linearGradient>
		<path class="st2" d="M157.5,123.2l-57.7,29.3l-58-28.3v38.7l58.4,27.6l57.5-27.8V123L157.5,123.2z"/>
		<linearGradient id="SVGID_3_" gradientUnits="userSpaceOnUse" x1="41.9" y1="156.8" x2="157.7" y2="156.8">
			<stop  offset="0" style="stop-color:#00B1BE;stop-opacity:0.1"/>
			<stop  offset="1" style="stop-color:#26CAD3;stop-opacity:0.1"/>
		</linearGradient>
		<path class="st3" d="M156.2,125.5V162l-56,27l-56.9-27v-35.4l55.9,27.2l0.7,0.3l0.7-0.3L156.2,125.5 M157.7,123.1l-0.1,0.1
			l-57.7,29.3l-58-28.3v38.7l58.4,27.6l57.4-27.7V123.1L157.7,123.1z"/>
		<rect x="0.5" y="-0.8" class="st4" width="199" height="200"/>
		<linearGradient id="SVGID_4_" gradientUnits="userSpaceOnUse" x1="53.5996" y1="72.15" x2="142.1" y2="72.15">
			<stop  offset="0" style="stop-color:#26CAD3"/>
			<stop  offset="0.34" style="stop-color:#1DC4CE"/>
			<stop  offset="0.9" style="stop-color:#05B4C1"/>
			<stop  offset="1" style="stop-color:#00B1BE"/>
		</linearGradient>
		<path class="st5" d="M97.9,111.2c-21.5,0-39-17.5-39-39s17.5-39,39-39s39,17.5,39,39l0,0C136.9,93.7,119.5,111.2,97.9,111.2
			 M97.9,27.9c-24.4,0-44.2,19.8-44.3,44.2s19.8,44.2,44.2,44.3c16.4,0,31.4-9,39.1-23.4v23.4h5.2V72.1
			C142.1,47.7,122.4,27.9,97.9,27.9"/>
		<linearGradient id="SVGID_5_" gradientUnits="userSpaceOnUse" x1="64.1494" y1="72.05" x2="122" y2="72.05">
			<stop  offset="0" style="stop-color:#26CAD3"/>
			<stop  offset="0.34" style="stop-color:#1DC4CE"/>
			<stop  offset="0.9" style="stop-color:#05B4C1"/>
			<stop  offset="1" style="stop-color:#00B1BE"/>
		</linearGradient>
		<path class="st6" d="M97.9,100.7c-15.8,0-28.6-12.8-28.6-28.6s12.8-28.6,28.6-28.6c7.6,0,15,3.1,20.4,8.5l3.7-3.7
			C108.9,35,87.5,34.9,74.2,48s-13.4,34.5-0.3,47.8s34.5,13.4,47.8,0.3c0.1-0.1,0.1-0.1,0.2-0.2l-3.7-3.7
			C112.8,97.7,105.5,100.7,97.9,100.7"/>
		<linearGradient id="SVGID_6_" gradientUnits="userSpaceOnUse" x1="74.537" y1="72.05" x2="114.6" y2="72.05">
			<stop  offset="0" style="stop-color:#26CAD3"/>
			<stop  offset="0.34" style="stop-color:#1DC4CE"/>
			<stop  offset="0.9" style="stop-color:#05B4C1"/>
			<stop  offset="1" style="stop-color:#00B1BE"/>
		</linearGradient>
		<path class="st7" d="M97.9,90.3c-10.1,0-18.2-8.2-18.2-18.2C79.8,62,88,53.9,98,53.9c4.9,0,9.5,2,12.9,5.4l3.7-3.7
			c-9.1-9.2-23.9-9.3-33.1-0.2s-9.3,23.9-0.2,33.1s23.9,9.3,33.1,0.2l0.1-0.1l-3.7-3.7C107.4,88.4,102.8,90.3,97.9,90.3"/>
		<linearGradient id="SVGID_7_" gradientUnits="userSpaceOnUse" x1="84.951" y1="72.1" x2="107.2393" y2="72.1">
			<stop  offset="0" style="stop-color:#26CAD3"/>
			<stop  offset="0.34" style="stop-color:#1DC4CE"/>
			<stop  offset="0.9" style="stop-color:#05B4C1"/>
			<stop  offset="1" style="stop-color:#00B1BE"/>
		</linearGradient>
		<path class="st8" d="M97.9,79.9c-4.3,0-7.8-3.5-7.8-7.8s3.5-7.8,7.8-7.8c2.1,0,4.2,0.9,5.6,2.4l3.7-3.7c-5-5.1-13.2-5.2-18.4-0.2
			c-5.1,5-5.2,13.2-0.2,18.4c5,5.1,13.2,5.2,18.4,0.2l0.1-0.1l-3.7-3.7C102,79.1,100,79.9,97.9,79.9"/>
	</g>
</g>
</svg>
